HIERARCHY
ROOT Root
{
  OFFSET 0.0 0.0 0.0
  CHANNELS 6 Xposition Yposition Zposition Zrotation Yrotation Xrotation
  JOINT Hips
  {
    OFFSET 0.0 100.0 0.0
    CHANNELS 6 Xposition Yposition Zposition Zrotation Yrotation Xrotation
    JOINT Spine1
    {
      OFFSET 5.003913 -0.037094 -0.013727
      CHANNELS 3 Zrotation Yrotation Xrotation
      JOINT Spine2
      {
        OFFSET 7.125363 -1e-06 0.0
        CHANNELS 3 Zrotation Yrotation Xrotation
        JOINT Chest
        {
          OFFSET 7.594027 1e-06 0.0
          CHANNELS 3 Zrotation Yrotation Xrotation
          JOINT Neck1
          {
            OFFSET 26.313086 -0.460272 -0.181672
            CHANNELS 3 Zrotation Yrotation Xrotation
            JOINT Neck2
            {
              OFFSET 8.045911 0.0 0.0
              CHANNELS 3 Zrotation Yrotation Xrotation
              JOINT Head
              {
                OFFSET 6.432774 0.0 0.0
                CHANNELS 3 Zrotation Yrotation Xrotation
                JOINT HeadEnd
                {
                  OFFSET 16.169773 0.06451 0.00362
                  CHANNELS 3 Zrotation Yrotation Xrotation
                }
                JOINT Jaw
                {
                  OFFSET 0.108741 3.12938 0.002639
                  CHANNELS 3 Zrotation Yrotation Xrotation
                }
                JOINT LeftEye
                {
                  OFFSET 4.45173 8.166359 3.206392
                  CHANNELS 3 Zrotation Yrotation Xrotation
                }
                JOINT RightEye
                {
                  OFFSET 4.436895 8.135758 -3.222429
                  CHANNELS 3 Zrotation Yrotation Xrotation
                }
              }
            }
          }
          JOINT LeftShoulder
          {
            OFFSET 23.218927 5.195579 1.621656
            CHANNELS 3 Zrotation Yrotation Xrotation
            JOINT LeftArm
            {
              OFFSET 15.902118 2e-06 -2e-06
              CHANNELS 3 Zrotation Yrotation Xrotation
              JOINT LeftForeArm
              {
                OFFSET 28.739307 0.0 -1e-06
                CHANNELS 3 Zrotation Yrotation Xrotation
                JOINT LeftHand
                {
                  OFFSET 27.093981 -4e-06 0.0
                  CHANNELS 3 Zrotation Yrotation Xrotation
                  JOINT LeftHandThumb1
                  {
                    OFFSET 2.276781 3.380274 0.83384
                    CHANNELS 3 Zrotation Yrotation Xrotation
                    JOINT LeftHandThumb2
                    {
                      OFFSET 4.705309 -1e-06 -1e-06
                      CHANNELS 3 Zrotation Yrotation Xrotation
                      JOINT LeftHandThumb3
                      {
                        OFFSET 2.798515 0.0 3e-06
                        CHANNELS 3 Zrotation Yrotation Xrotation
                        JOINT LeftHandThumbEnd
                        {
                          OFFSET 3.180793 4e-06 -4e-06
                          CHANNELS 3 Zrotation Yrotation Xrotation
                        }
                      }
                    }
                  }
                  JOINT LeftHandIndex1
                  {
                    OFFSET 3.247786 2.352677 0.137192
                    CHANNELS 3 Zrotation Yrotation Xrotation
                    JOINT LeftHandIndex2
                    {
                      OFFSET 6.367095 1e-06 0.0
                      CHANNELS 3 Zrotation Yrotation Xrotation
                      JOINT LeftHandIndex3
                      {
                        OFFSET 3.662364 0.0 0.0
                        CHANNELS 3 Zrotation Yrotation Xrotation
                        JOINT LeftHandIndex4
                        {
                          OFFSET 2.329242 4e-06 -4e-06
                          CHANNELS 3 Zrotation Yrotation Xrotation
                          JOINT LeftHandIndexEnd
                          {
                            OFFSET 2.767823 1e-06 0.0
                            CHANNELS 3 Zrotation Yrotation Xrotation
                          }
                        }
                      }
                    }
                  }
                  JOINT LeftHandMiddle1
                  {
                    OFFSET 3.163612 0.945023 -0.406112
                    CHANNELS 3 Zrotation Yrotation Xrotation
                    JOINT LeftHandMiddle2
                    {
                      OFFSET 6.276789 3e-06 0.0
                      CHANNELS 3 Zrotation Yrotation Xrotation
                      JOINT LeftHandMiddle3
                      {
                        OFFSET 4.35652 -1e-06 4e-06
                        CHANNELS 3 Zrotation Yrotation Xrotation
                        JOINT LeftHandMiddle4
                        {
                          OFFSET 2.996877 0.0 8e-06
                          CHANNELS 3 Zrotation Yrotation Xrotation
                          JOINT LeftHandMiddleEnd
                          {
                            OFFSET 2.323256 3e-06 -4e-06
                            CHANNELS 3 Zrotation Yrotation Xrotation
                          }
                        }
                      }
                    }
                  }
                  JOINT LeftHandRing1
                  {
                    OFFSET 2.882606 -0.309162 0.107445
                    CHANNELS 3 Zrotation Yrotation Xrotation
                    JOINT LeftHandRing2
                    {
                      OFFSET 6.033198 0.0 4e-06
                      CHANNELS 3 Zrotation Yrotation Xrotation
                      JOINT LeftHandRing3
                      {
                        OFFSET 4.350578 3e-06 0.0
                        CHANNELS 3 Zrotation Yrotation Xrotation
                        JOINT LeftHandRing4
                        {
                          OFFSET 2.651321 2e-06 -7e-06
                          CHANNELS 3 Zrotation Yrotation Xrotation
                          JOINT LeftHandRingEnd
                          {
                            OFFSET 1.937663 1e-06 -4e-06
                            CHANNELS 3 Zrotation Yrotation Xrotation
                          }
                        }
                      }
                    }
                  }
                  JOINT LeftHandPinky1
                  {
                    OFFSET 2.865315 -1.525436 0.575687
                    CHANNELS 3 Zrotation Yrotation Xrotation
                    JOINT LeftHandPinky2
                    {
                      OFFSET 5.54936 1e-06 -8e-06
                      CHANNELS 3 Zrotation Yrotation Xrotation
                      JOINT LeftHandPinky3
                      {
                        OFFSET 3.070974 0.0 -4e-06
                        CHANNELS 3 Zrotation Yrotation Xrotation
                        JOINT LeftHandPinky4
                        {
                          OFFSET 1.549672 1e-06 0.0
                          CHANNELS 3 Zrotation Yrotation Xrotation
                          JOINT LeftHandPinkyEnd
                          {
                            OFFSET 1.952123 0.0 0.0
                            CHANNELS 3 Zrotation Yrotation Xrotation
                          }
                        }
                      }
                    }
                  }
                }
              }
            }
          }
          JOINT RightShoulder
          {
            OFFSET 23.161716 5.296122 -1.380114
            CHANNELS 3 Zrotation Yrotation Xrotation
            JOINT RightArm
            {
              OFFSET -16.027195 -2e-06 1.1e-05
              CHANNELS 3 Zrotation Yrotation Xrotation
              JOINT RightForeArm
              {
                OFFSET -28.736639 4e-06 2e-06
                CHANNELS 3 Zrotation Yrotation Xrotation
                JOINT RightHand
                {
                  OFFSET -27.133619 6e-06 0.0
                  CHANNELS 3 Zrotation Yrotation Xrotation
                  JOINT RightHandThumb1
                  {
                    OFFSET -2.274328 -3.351035 -0.83067
                    CHANNELS 3 Zrotation Yrotation Xrotation
                    JOINT RightHandThumb2
                    {
                      OFFSET -4.703594 -3e-06 2e-06
                      CHANNELS 3 Zrotation Yrotation Xrotation
                      JOINT RightHandThumb3
                      {
                        OFFSET -2.794935 -4e-06 -3e-06
                        CHANNELS 3 Zrotation Yrotation Xrotation
                        JOINT RightHandThumbEnd
                        {
                          OFFSET -3.183852 4e-06 1e-06
                          CHANNELS 3 Zrotation Yrotation Xrotation
                        }
                      }
                    }
                  }
                  JOINT RightHandIndex1
                  {
                    OFFSET -3.253496 -2.33755 -0.127667
                    CHANNELS 3 Zrotation Yrotation Xrotation
                    JOINT RightHandIndex2
                    {
                      OFFSET -6.344434 0.0 0.0
                      CHANNELS 3 Zrotation Yrotation Xrotation
                      JOINT RightHandIndex3
                      {
                        OFFSET -3.654871 0.0 -8e-06
                        CHANNELS 3 Zrotation Yrotation Xrotation
                        JOINT RightHandIndex4
                        {
                          OFFSET -2.327586 -1e-06 0.0
                          CHANNELS 3 Zrotation Yrotation Xrotation
                          JOINT RightHandIndexEnd
                          {
                            OFFSET -2.770001 3e-06 8e-06
                            CHANNELS 3 Zrotation Yrotation Xrotation
                          }
                        }
                      }
                    }
                  }
                  JOINT RightHandMiddle1
                  {
                    OFFSET -3.168223 -0.944764 0.411762
                    CHANNELS 3 Zrotation Yrotation Xrotation
                    JOINT RightHandMiddle2
                    {
                      OFFSET -6.266691 -1e-06 -4e-06
                      CHANNELS 3 Zrotation Yrotation Xrotation
                      JOINT RightHandMiddle3
                      {
                        OFFSET -4.348901 0.0 0.0
                        CHANNELS 3 Zrotation Yrotation Xrotation
                        JOINT RightHandMiddle4
                        {
                          OFFSET -3.00024 2e-06 -4e-06
                          CHANNELS 3 Zrotation Yrotation Xrotation
                          JOINT RightHandMiddleEnd
                          {
                            OFFSET -2.321477 -4e-06 -4e-06
                            CHANNELS 3 Zrotation Yrotation Xrotation
                          }
                        }
                      }
                    }
                  }
                  JOINT RightHandRing1
                  {
                    OFFSET -2.885654 0.293261 -0.119232
                    CHANNELS 3 Zrotation Yrotation Xrotation
                    JOINT RightHandRing2
                    {
                      OFFSET -6.032835 -1e-06 -4e-06
                      CHANNELS 3 Zrotation Yrotation Xrotation
                      JOINT RightHandRing3
                      {
                        OFFSET -4.33881 0.0 -4e-06
                        CHANNELS 3 Zrotation Yrotation Xrotation
                        JOINT RightHandRing4
                        {
                          OFFSET -2.654903 -4e-06 -4e-06
                          CHANNELS 3 Zrotation Yrotation Xrotation
                          JOINT RightHandRingEnd
                          {
                            OFFSET -1.935122 0.0 4e-06
                            CHANNELS 3 Zrotation Yrotation Xrotation
                          }
                        }
                      }
                    }
                  }
                  JOINT RightHandPinky1
                  {
                    OFFSET -2.866241 1.503904 -0.60527
                    CHANNELS 3 Zrotation Yrotation Xrotation
                    JOINT RightHandPinky2
                    {
                      OFFSET -5.553177 -2e-06 0.0
                      CHANNELS 3 Zrotation Yrotation Xrotation
                      JOINT RightHandPinky3
                      {
                        OFFSET -3.062664 -1e-06 -4e-06
                        CHANNELS 3 Zrotation Yrotation Xrotation
                        JOINT RightHandPinky4
                        {
                          OFFSET -1.546529 2e-06 4e-06
                          CHANNELS 3 Zrotation Yrotation Xrotation
                          JOINT RightHandPinkyEnd
                          {
                            OFFSET -1.952341 0.0 -4e-06
                            CHANNELS 3 Zrotation Yrotation Xrotation
                          }
                        }
                      }
                    }
                  }
                }
              }
            }
          }
        }
      }
    }
    JOINT LeftLeg
    {
      OFFSET -8.443107 2.567604 10.043214
      CHANNELS 3 Zrotation Yrotation Xrotation
      JOINT LeftShin
      {
        OFFSET 43.229198 1e-06 -1e-06
        CHANNELS 3 Zrotation Yrotation Xrotation
        JOINT LeftFoot
        {
          OFFSET 42.298611 1e-06 1e-06
          CHANNELS 3 Zrotation Yrotation Xrotation
          JOINT LeftToeBase
          {
            OFFSET 14.165858 1e-06 0.0
            CHANNELS 3 Zrotation Yrotation Xrotation
            JOINT LeftToeEnd
            {
              OFFSET 6.7141 -0.234461 0.0
              CHANNELS 3 Zrotation Yrotation Xrotation
            }
          }
        }
      }
    }
    JOINT RightLeg
    {
      OFFSET -8.303923 2.592729 -10.047278
      CHANNELS 3 Zrotation Yrotation Xrotation
      JOINT RightShin
      {
        OFFSET -43.369682 0.0 1e-06
        CHANNELS 3 Zrotation Yrotation Xrotation
        JOINT RightFoot
        {
          OFFSET -42.260784 4e-06 2e-06
          CHANNELS 3 Zrotation Yrotation Xrotation
          JOINT RightToeBase
          {
            OFFSET -14.222245 -2e-06 -1e-06
            CHANNELS 3 Zrotation Yrotation Xrotation
            JOINT RightToeEnd
            {
              OFFSET -6.660062 0.232574 -2e-06
              CHANNELS 3 Zrotation Yrotation Xrotation
            }
          }
        }
      }
    }
  }
}
MOTION
Frames: 4
Frame Time: 0.03333333333333333
0.0 0.0 0.0 0.0 -0.0 0.0 -1.79207 99.738693 5.738624 90.649521 1.563331 90.089622 -2.188288 0.791633 -0.135947 -11.747736 -0.494439 0.144948 16.881853 0.273549 -1.754827 18.821407 4.465073 2.767714 -2.42621 -0.464631 0.990246 -28.226515 0.797577 -0.216121 5e-06 0.0 0.0 0.054398 -0.000166 0.041924 0.043748 0.041738 0.030802 0.013147 -0.037634 0.058356 -118.006027 -76.337189 133.847412 35.648979 -51.808537 16.099487 36.043274 0.150722 -0.166178 4.883241 -7.375213 15.739777 17.636627 -26.322729 52.411179 -19.466665 -14.3956 29.410389 -1e-06 -8.774822 -2e-06 16.001173 -18.232246 6.270202 -0.609774 -1.795655 -3.889328 -4.807088 -11.04681 -2.93785 6e-06 -20.976017 1e-06 -5.019971 -25.03356 -4.031879 6e-06 1e-06 -1e-06 -10.634535 -5.686968 -3.565585 10.573278 -17.922951 -3.113902 3e-06 -13.821209 1e-06 -0.501777 -31.181505 -4.027015 -11.786402 -59.831726 7.645024 -13.982715 -7.150196 -2.875038 13.772733 -8.401493 -3.218242 0.347737 -34.211555 0.771651 -0.963026 -17.733366 2.621021 -1e-06 1e-06 -1e-06 -17.346424 -20.095213 -4.201777 21.757565 -1.638377 3.866425 1e-06 -6.338824 1e-06 -1.697589 -22.591742 -6.194006 1e-06 -4e-06 -3e-06 29.154945 -71.854256 170.643051 37.478363 -40.345287 16.35272 41.311295 -0.249435 0.270992 -0.14419 -5.068158 12.50664 22.182112 -20.375887 49.933292 -16.701809 -16.743528 28.476519 -2e-06 -12.690601 0.0 16.264931 -17.966963 2.397364 -0.105919 -1.513855 -4.275879 -5.039042 -5.61287 -2.953556 6e-06 -11.02052 -3e-06 -6.111297 -15.89533 -3.840469 1e-06 -0.0 -1e-06 -10.283367 -5.680286 -4.341838 11.028295 -11.302403 -2.372633 -1.384269 -14.238579 -6.320118 -0.625441 -26.924183 -3.827597 -4.665015 -49.611053 -4.03441 -13.708525 -7.363476 -3.720936 18.14115 -14.052738 -3.242674 4e-06 -18.787266 -1e-06 -0.429711 -8.456043 2.555504 2e-06 -1e-06 -1e-06 -15.923534 -20.094479 -5.473582 30.41921 -7.190826 1.735926 -1e-06 -8.162922 0.0 -1.8619 -22.861469 -6.167942 -1e-06 -2e-06 -2e-06 -179.980026 -3.858289 -13.050068 14.04485 -0.002931 0.084946 -80.731956 1.649389 -4.362804 -6.096573 1.537721 2.127977 -0.999999 -0.0 -0.0 -2.416202 -4.390071 -11.817429 17.673197 0.017137 -0.097676 -81.99868 -0.878826 -4.766051 -6.046416 0.721865 1.659186 -1.000002 0.0 -0.0 
0.0 0.0 0.0 0.0 -0.0 0.0 -1.823097 99.742889 5.795207 90.635773 1.551035 90.133926 -2.216586 0.774378 -0.150903 -11.745744 -0.478403 0.193233 16.859324 0.283939 -1.809423 18.777882 4.4762 2.773399 -2.411072 -0.480873 0.962907 -28.204018 0.770447 -0.251791 6e-06 0.0 0.0 0.051884 -0.002842 0.061165 0.04981 0.039061 0.051256 0.022233 -0.040449 0.075576 -118.014603 -76.366409 133.852036 35.657391 -51.790604 16.074274 36.017643 0.131803 -0.226115 4.904825 -7.466148 15.502023 17.636629 -26.322729 52.41119 -19.466665 -14.395602 29.410389 -1e-06 -8.774822 -1e-06 15.977682 -18.178944 6.218438 -0.609776 -1.795653 -3.889327 -4.807087 -11.046809 -2.93785 6e-06 -20.976017 0.0 -5.019969 -25.033556 -4.03188 4e-06 -1e-06 0.0 -10.634535 -5.68697 -3.565584 10.573278 -17.922951 -3.113903 3e-06 -13.821208 2e-06 -0.501778 -31.181505 -4.027014 -11.682323 -59.74514 7.613347 -13.982712 -7.150197 -2.875042 13.772732 -8.401493 -3.218241 0.34774 -34.211544 0.771649 -0.963027 -17.73337 2.62102 0.0 1e-06 -0.0 -17.346413 -20.095211 -4.20178 21.757557 -1.638374 3.866425 1e-06 -6.338824 1e-06 -1.69759 -22.591742 -6.194006 1e-06 -4e-06 -3e-06 29.175423 -71.795425 170.690384 37.280586 -40.337231 16.256336 40.993145 -0.274034 0.242803 0.009924 -5.213996 12.212673 22.182116 -20.375889 49.933315 -16.701815 -16.743525 28.476526 -4e-06 -12.690601 1e-06 16.219755 -17.999254 2.431043 -0.105919 -1.513857 -4.275878 -5.039042 -5.612873 -2.953556 7e-06 -11.020523 -3e-06 -6.111295 -15.89533 -3.840472 1e-06 0.0 -1e-06 -10.283369 -5.680286 -4.341839 11.028293 -11.302404 -2.372632 -1.38427 -14.238579 -6.320122 -0.625435 -26.924187 -3.827603 -4.694613 -49.723385 -3.986961 -13.708524 -7.363475 -3.720941 18.141153 -14.052739 -3.242675 7e-06 -18.787268 -4e-06 -0.429709 -8.456043 2.555504 1e-06 1e-06 -1e-06 -15.923534 -20.094482 -5.473582 30.41921 -7.190827 1.735924 0.0 -8.162924 0.0 -1.861897 -22.861469 -6.167943 -0.0 -4e-06 -2e-06 -179.925751 -3.888026 -13.024769 13.968408 0.000332 0.127187 -80.724243 1.689183 -4.483335 -6.113605 1.561051 2.137848 -0.999999 0.0 -0.0 -2.340953 -4.343993 -11.853003 17.584658 0.013633 -0.108756 -81.998611 -0.900342 -4.729206 -6.071762 0.699579 1.656176 -1.000001 0.0 0.0 
0.0 0.0 0.0 0.0 -0.0 0.0 -1.839211 99.735176 5.821651 90.643448 1.534355 90.165009 -2.249065 0.742312 -0.160265 -11.748417 -0.477206 0.213515 16.880009 0.280312 -1.828728 18.733328 4.411263 2.791703 -2.440796 -0.491717 0.880878 -28.120571 0.700115 -0.268351 6e-06 0.0 -0.0 0.045868 -0.005805 0.060896 0.039983 0.033405 0.052976 0.017059 -0.04118 0.072525 -118.108162 -76.368134 133.944458 35.622257 -51.722218 16.08947 36.048855 0.12299 -0.253963 4.888072 -7.598067 15.204453 17.636633 -26.322733 52.411182 -19.46666 -14.395598 29.410389 -0.0 -8.774821 -2e-06 15.985661 -18.166929 6.190245 -0.609776 -1.795652 -3.889329 -4.807088 -11.046811 -2.937848 4e-06 -20.976019 1e-06 -5.019973 -25.03356 -4.031876 7e-06 -0.0 -2e-06 -10.634533 -5.68697 -3.565587 10.573275 -17.922951 -3.113901 2e-06 -13.821209 1e-06 -0.501776 -31.181505 -4.027014 -11.693028 -59.67503 7.60087 -13.982711 -7.150197 -2.875041 13.772727 -8.401491 -3.218241 0.34773 -34.211544 0.771655 -0.963029 -17.733366 2.621021 0.0 1e-06 -0.0 -17.346415 -20.095217 -4.20178 21.757555 -1.638376 3.866428 0.0 -6.338824 2e-06 -1.697591 -22.591743 -6.194005 1e-06 -4e-06 -2e-06 29.055735 -71.735535 170.848114 36.994011 -40.307022 16.183226 40.722549 -0.297779 0.21286 0.056903 -5.325066 11.982971 22.182114 -20.375895 49.933319 -16.701811 -16.743528 28.476528 -3e-06 -12.6906 -1e-06 16.185884 -17.979362 2.455108 -0.105919 -1.513854 -4.275882 -5.039042 -5.612873 -2.953555 6e-06 -11.02052 -2e-06 -6.111297 -15.89533 -3.840471 1e-06 -1e-06 -0.0 -10.283371 -5.680287 -4.341838 11.028293 -11.302406 -2.372631 -1.384269 -14.238581 -6.32012 -0.625438 -26.924191 -3.827599 -4.706312 -49.778843 -3.964413 -13.708527 -7.363476 -3.720938 18.141148 -14.052739 -3.242674 5e-06 -18.78727 -3e-06 -0.429712 -8.456044 2.555503 2e-06 0.0 1e-06 -15.923536 -20.094482 -5.473582 30.41921 -7.190825 1.735926 2e-06 -8.162925 -1e-06 -1.861901 -22.861473 -6.167943 0.0 -5e-06 -3e-06 -179.957535 -3.898652 -13.021252 14.022615 -0.000766 0.153104 -80.762283 1.702832 -4.515017 -6.062006 1.566182 2.143746 -0.999998 0.0 -0.0 -2.366963 -4.353575 -11.888138 17.652405 0.017447 -0.119096 -82.053581 -0.911541 -4.719515 -6.042253 0.688623 1.653631 -1.000003 0.0 -0.0 
0.0 0.0 0.0 0.0 -0.0 0.0 -1.840563 99.723907 5.809278 90.656647 1.515053 90.185402 -2.260709 0.699795 -0.161398 -11.756316 -0.47702 0.221793 16.90062 0.259481 -1.82232 18.7127 4.270071 2.800172 -2.469552 -0.493468 0.794119 -28.061623 0.618451 -0.28808 6e-06 0.0 -0.0 0.041119 -0.006931 0.052201 0.032134 0.030186 0.046773 0.010551 -0.040563 0.060803 -118.330093 -76.335411 134.175888 35.604748 -51.618942 16.103535 36.071594 0.12113 -0.258355 4.857494 -7.664207 15.003572 17.636633 -26.322731 52.411179 -19.466661 -14.395598 29.410385 -1e-06 -8.774821 -1e-06 15.97738 -18.155434 6.181705 -0.609776 -1.795653 -3.889326 -4.807086 -11.046808 -2.93785 5e-06 -20.976013 1e-06 -5.019972 -25.033556 -4.031876 6e-06 0.0 1e-06 -10.634533 -5.68697 -3.565586 10.573276 -17.922949 -3.113901 2e-06 -13.821209 3e-06 -0.501778 -31.181505 -4.027011 -11.707473 -59.622955 7.577782 -13.982712 -7.150194 -2.875042 13.772729 -8.401492 -3.218239 0.347735 -34.211544 0.771658 -0.963028 -17.733366 2.621022 1e-06 1e-06 0.0 -17.346416 -20.095211 -4.201779 21.757559 -1.638376 3.866427 1e-06 -6.338824 1e-06 -1.69759 -22.591745 -6.194006 2e-06 -2e-06 -0.0 28.93515 -71.686012 171.003799 36.696884 -40.286659 16.240664 40.495312 -0.242599 0.217262 0.050832 -5.405395 11.810825 22.182112 -20.3759 49.933315 -16.701809 -16.74353 28.47653 -3e-06 -12.6906 -1e-06 16.149879 -17.93539 2.487225 -0.105919 -1.513855 -4.275878 -5.039042 -5.612871 -2.953555 6e-06 -11.02052 -1e-06 -6.111298 -15.895328 -3.840468 0.0 0.0 -2e-06 -10.283371 -5.680288 -4.341837 11.028293 -11.302404 -2.37263 -1.384269 -14.23858 -6.320118 -0.62544 -26.924191 -3.827598 -4.721242 -49.768936 -3.930093 -13.708523 -7.363473 -3.720938 18.141146 -14.052738 -3.242674 4e-06 -18.787266 -0.0 -0.429712 -8.456043 2.555504 2e-06 -1e-06 0.0 -15.923538 -20.094481 -5.473581 30.41921 -7.190825 1.735925 2e-06 -8.162925 -1e-06 -1.8619 -22.861467 -6.167939 0.0 -4e-06 -1e-06 179.947845 -3.904335 -13.054586 14.151975 -0.003971 0.161464 -80.812935 1.720519 -4.499515 -6.025321 1.561236 2.143162 -0.999998 -0.0 0.0 -2.455274 -4.385221 -11.911604 17.784742 0.020222 -0.131587 -82.112915 -0.901998 -4.729562 -6.017909 0.68026 1.65116 -1.000001 -0.0 0.0 
